<svg width="261" height="62" viewBox="0 0 261 62" fill="none" xmlns="http://www.w3.org/2000/svg">
<path d="M1 44H146V48H1V44Z" fill="#3B00FF"/>
<path d="M200.253 49.4C195.693 49.4 192.333 48.36 190.173 46.28C188.04 44.1733 186.973 41.4133 186.973 38C186.973 34.6667 188.04 31.96 190.173 29.88C192.333 27.8 195.693 26.76 200.253 26.76C203.32 26.76 205.88 27.2667 207.933 28.28C210.013 29.2667 211.547 30.6133 212.533 32.32C213.52 34 214.013 35.8933 214.013 38C214.013 41.44 212.867 44.2 210.573 46.28C208.307 48.36 204.867 49.4 200.253 49.4ZM200.413 42.6C202.147 42.6 203.44 42.1867 204.293 41.36C205.147 40.5333 205.573 39.4267 205.573 38.04C205.573 36.7333 205.147 35.6667 204.293 34.84C203.44 33.9867 202.147 33.56 200.413 33.56C198.68 33.56 197.413 33.9733 196.613 34.8C195.813 35.6267 195.413 36.7067 195.413 38.04C195.413 39.4267 195.813 40.5333 196.613 41.36C197.413 42.1867 198.68 42.6 200.413 42.6Z" fill="white"/>
<path d="M134.252 6L252.819 45.089L251.567 48.8879L133 9.79888L134.252 6Z" fill="#1900FF"/>
<path d="M166.833 49.4C160.806 49.4 156.366 48.12 153.513 45.56C150.659 43 149.233 39.3467 149.233 34.6C149.233 29.8267 150.659 26.0533 153.513 23.28C156.366 20.5067 160.806 19.12 166.833 19.12C175.259 19.12 180.899 22.0133 183.753 27.8C181.353 28.6267 178.539 29.8667 175.313 31.52C174.539 30.0267 173.313 28.92 171.633 28.2C169.979 27.48 168.286 27.12 166.553 27.12C163.993 27.12 162.086 27.8 160.833 29.16C159.579 30.4933 158.953 32.1467 158.953 34.12C158.953 36.2533 159.619 38 160.953 39.36C162.313 40.6933 164.379 41.36 167.153 41.36C169.366 41.36 171.126 41 172.433 40.28C173.739 39.5333 174.699 38.36 175.313 36.76C177.499 37.9333 180.299 39.2533 183.713 40.72C182.379 43.9467 180.153 46.2 177.033 47.48C173.913 48.76 170.513 49.4 166.833 49.4Z" fill="white"/>
<path d="M233.794 49C233.954 45.08 234.034 41.4667 234.034 38.16C234.034 36.9867 233.74 36.0533 233.154 35.36C232.594 34.6667 231.874 34.32 230.994 34.32C230.114 34.32 229.367 34.72 228.754 35.52C228.14 36.2933 227.78 37.36 227.674 38.72C227.62 40.7467 227.594 42.1867 227.594 43.04C227.594 44.8533 227.647 46.84 227.754 49H218.194C218.407 45.16 218.514 41.5333 218.514 38.12C218.514 34.7067 218.407 31.0533 218.194 27.16C219.954 27.24 221.3 27.28 222.234 27.28C223.22 27.28 224.567 27.24 226.274 27.16L227.434 33.04C228.047 30.9067 229.007 29.3333 230.314 28.32C231.62 27.28 233.14 26.76 234.874 26.76C236.474 26.76 237.86 27.12 239.034 27.84C240.207 28.5333 241.087 29.48 241.674 30.68C242.287 31.88 242.594 33.2267 242.594 34.72V40.48C242.594 44.0267 242.66 46.8667 242.794 49H233.794Z" fill="white"/>
<path d="M33.0518 40C32.4438 38.176 31.6278 35.888 30.6038 33.136H15.2918L12.8918 40H0.84375L14.2838 5.152H31.9478L45.4838 40H33.0518ZM27.8678 25.648C26.6518 22.288 25.4038 18.928 24.1238 15.568L22.9718 12.448C21.8518 15.36 20.2038 19.76 18.0278 25.648H27.8678ZM58.3875 20.8C58.3555 22.72 58.3395 25.664 58.3395 29.632C58.3395 34.4 58.3715 37.856 58.4355 40H47.1075L47.1555 34.576C47.2195 28.624 47.2515 24.032 47.2515 20.8C47.2515 17.728 47.2195 13.376 47.1555 7.744L47.1075 2.56H58.4355C58.3715 7.104 58.3395 10.816 58.3395 13.696C58.3395 16.896 58.3555 19.264 58.3875 20.8ZM68.727 10.96C66.711 10.96 65.207 10.464 64.215 9.472C63.255 8.48 62.775 7.184 62.775 5.584C62.775 4.016 63.255 2.72 64.215 1.696C65.207 0.671998 66.711 0.159998 68.727 0.159998C70.647 0.159998 72.119 0.687998 73.143 1.744C74.167 2.768 74.679 4.048 74.679 5.584C74.679 7.184 74.183 8.48 73.191 9.472C72.199 10.464 70.711 10.96 68.727 10.96ZM63.159 40C63.383 34.848 63.495 30.592 63.495 27.232C63.495 23.232 63.367 18.752 63.111 13.792H74.631C74.375 18.56 74.247 23.04 74.247 27.232C74.247 30.752 74.359 35.008 74.583 40H63.159ZM101.639 13.792H110.855C110.695 19.04 110.615 26.496 110.615 36.16C110.615 39.968 109.847 43.088 108.311 45.52C106.807 47.952 104.807 49.712 102.311 50.8C99.8145 51.92 97.0305 52.48 93.9585 52.48C90.9185 52.48 88.1985 52.032 85.7985 51.136C83.3985 50.272 81.5745 49.104 80.3265 47.632L82.4865 40.288C84.2145 41.28 85.8465 41.984 87.3825 42.4C88.9185 42.848 90.5185 43.072 92.1825 43.072C97.6225 43.072 100.343 40.768 100.343 36.16C100.343 35.488 100.359 35.008 100.391 34.72C100.391 34.528 100.391 34.272 100.391 33.952C100.423 33.632 100.423 33.216 100.391 32.704C98.7585 37.248 95.3025 39.52 90.0225 39.52C87.8785 39.52 85.9585 38.944 84.2625 37.792C82.5985 36.64 81.3025 35.088 80.3745 33.136C79.4465 31.152 78.9825 28.976 78.9825 26.608C78.9825 24.176 79.4465 21.952 80.3745 19.936C81.3025 17.888 82.5985 16.272 84.2625 15.088C85.9265 13.904 87.7985 13.312 89.8785 13.312C95.2865 13.312 98.8065 15.216 100.439 19.024L101.639 13.792ZM95.0145 31.84C95.7505 31.84 96.5185 31.68 97.3185 31.36C98.1185 31.008 98.8065 30.464 99.3825 29.728C99.9585 28.96 100.247 28.016 100.247 26.896C100.247 24.912 99.7985 23.504 98.9025 22.672C98.0065 21.808 96.6785 21.376 94.9185 21.376C93.3825 21.376 92.1665 21.888 91.2705 22.912C90.3745 23.936 89.9265 25.264 89.9265 26.896C89.9265 28.368 90.4065 29.568 91.3665 30.496C92.3585 31.392 93.5745 31.84 95.0145 31.84ZM133.421 40C133.613 35.296 133.709 30.96 133.709 26.992C133.709 25.584 133.357 24.464 132.653 23.632C131.981 22.8 131.117 22.384 130.061 22.384C129.005 22.384 128.109 22.864 127.373 23.824C126.637 24.752 126.205 26.032 126.077 27.664C126.013 30.096 125.981 31.824 125.981 32.848C125.981 35.024 126.045 37.408 126.173 40H114.701C114.957 35.392 115.085 31.04 115.085 26.944C115.085 22.848 114.957 18.464 114.701 13.792C116.813 13.888 118.429 13.936 119.549 13.936C120.733 13.936 122.349 13.888 124.397 13.792L125.789 20.848C126.525 18.288 127.677 16.4 129.245 15.184C130.813 13.936 132.637 13.312 134.717 13.312C136.637 13.312 138.301 13.744 139.709 14.608C141.117 15.44 142.173 16.576 142.877 18.016C143.613 19.456 143.981 21.072 143.981 22.864V29.776C143.981 34.032 144.061 37.44 144.221 40H133.421Z" fill="white"/>
<path d="M231.252 38L248.406 43.655L247.153 47.4539L230 41.7989L231.252 38Z" fill="#1900FF"/>
</svg>
